<?xml version="1.0" standalone="no"?><!DOCTYPE svg PUBLIC "-//W3C//DTD SVG 1.1//EN" "http://www.w3.org/Graphics/SVG/1.1/DTD/svg11.dtd"><svg t="1563867164763" class="icon" viewBox="0 0 1024 1024" version="1.1" xmlns="http://www.w3.org/2000/svg" p-id="7019" xmlns:xlink="http://www.w3.org/1999/xlink" width="200" height="200"><defs><style type="text/css"></style></defs><path d="M680.228571 106.057143s-21.942857 29.257143-64 82.285714c-36.571429 14.628571-69.485714 20.114286-104.228571 20.114286-34.742857 0-69.485714-5.485714-104.228571-20.114286-42.057143-54.857143-62.171429-82.285714-62.171429-84.114286 0 0 84.114286-67.657143 168.228571-67.657142 82.285714 1.828571 166.4 69.485714 166.4 69.485714zM512 987.428571C215.771429 987.428571 91.428571 894.171429 91.428571 676.571429c0-181.028571 144.457143-363.885714 316.342858-422.4 45.714286 14.628571 82.285714 21.942857 106.057142 21.942857s58.514286-9.142857 104.228572-21.942857C788.114286 312.685714 932.571429 493.714286 932.571429 676.571429c0 217.6-124.342857 310.857143-420.571429 310.857142z m153.6-385.828571c0-18.285714-16.457143-34.742857-36.571429-34.742857h-71.314285v-1.828572l84.114285-82.285714c14.628571-14.628571 5.485714-27.428571-7.314285-42.057143-14.628571-14.628571-36.571429-16.457143-47.542857-3.657143l-74.971429 73.142858-78.628571-76.8c-9.142857-10.971429-29.257143-5.485714-43.885715 5.485714-14.628571 14.628571-18.285714 32.914286-7.314285 42.057143l80.457142 76.8c-1.828571 1.828571-1.828571 3.657143-3.657142 5.485714h-65.828572c-20.114286 0-36.571429 16.457143-36.571428 34.742857s16.457143 34.742857 36.571428 34.742857h71.314286v34.742857h-71.314286c-20.114286 0-36.571429 16.457143-36.571428 34.742858s16.457143 34.742857 36.571428 34.742857h71.314286v43.885714c0 25.6 20.114286 43.885714 43.885714 43.885714s43.885714-18.285714 43.885714-43.885714v-43.885714h71.314286c20.114286 0 36.571429-16.457143 36.571429-34.742857s-16.457143-34.742857-36.571429-34.742858h-71.314286v-32.914285h71.314286c25.6 1.828571 42.057143-14.628571 42.057143-32.914286z" p-id="7020"></path></svg>